<svg width="14" height="17" viewBox="0 0 14 17" fill="none" xmlns="http://www.w3.org/2000/svg">
<path d="M7 0C3.14146 0 0 3.24335 0 7.22704C0 9.01543 0.635479 10.6556 1.67923 11.9166L1.68245 11.92L1.68486 11.9233C1.68486 11.9233 4.66271 15.4314 5.72289 16.4759C6.43282 17.1747 7.56637 17.1747 8.27631 16.4759C9.48475 15.2859 12.3159 11.9216 12.3159 11.9216L12.3176 11.9191L12.32 11.9166C13.3646 10.6555 14 9.01543 14 7.22704C14 3.24335 10.8585 0 7 0ZM7 1.27536C10.1909 1.27536 12.7647 3.93268 12.7647 7.22704C12.7647 8.70442 12.2432 10.0467 11.3806 11.088C11.375 11.0946 8.47825 14.5151 7.42383 15.5534C7.17929 15.7941 6.8199 15.7941 6.57537 15.5534C5.69412 14.6852 2.62751 11.0985 2.61857 11.088L2.61776 11.0872C1.75631 10.0459 1.23529 8.70401 1.23529 7.22704C1.23529 3.93268 3.80913 1.27536 7 1.27536ZM7 4.67632C6.22794 4.67632 5.57069 4.99819 5.14867 5.48837C4.72665 5.97854 4.52941 6.60707 4.52941 7.22704C4.52941 7.84701 4.72665 8.47554 5.14867 8.96571C5.57069 9.45589 6.22794 9.77776 7 9.77776C7.77206 9.77776 8.42931 9.45589 8.85133 8.96571C9.27335 8.47554 9.47059 7.84701 9.47059 7.22704C9.47059 6.60707 9.27335 5.97854 8.85133 5.48837C8.42931 4.99819 7.77206 4.67632 7 4.67632ZM7 5.95168C7.46323 5.95168 7.73245 6.10807 7.92808 6.33528C8.1237 6.5625 8.23529 6.89049 8.23529 7.22704C8.23529 7.56359 8.1237 7.89158 7.92808 8.1188C7.73245 8.34601 7.46323 8.5024 7 8.5024C6.53677 8.5024 6.26755 8.34601 6.07192 8.1188C5.8763 7.89158 5.76471 7.56359 5.76471 7.22704C5.76471 6.89049 5.8763 6.5625 6.07192 6.33528C6.26755 6.10807 6.53677 5.95168 7 5.95168Z" fill="black"/>
</svg>
