<svg xmlns="http://www.w3.org/2000/svg" width="1440" height="425" fill="none" viewBox="0 0 1440 425"><g opacity=".3"><path fill="#D4B244" d="M1440.75 420.5v149.238H.75c0-87.76 0-175.532.348-263.646 2.97-.299 5.604-.397 8.212-.187 14.397 1.157 28.786 2.41 43.182 3.587 7.448.609 14.906 1.094 22.355 1.695 11.293.911 22.58 1.883 33.872 2.81 7.324.601 14.662 1.05 21.97 1.793 4.258.433 4.982.019 5.046-4.467.27-18.971.481-37.943.791-56.914.067-4.104.453-8.204 1.014-12.345 14.785-1.966 29.247-3.902 43.712-5.818 13.846-1.834 27.693-3.667 41.544-5.466 18.424-2.393 36.853-4.742 55.278-7.132 14.344-1.86 28.685-3.755 43.027-5.632 18.177-2.378 36.353-4.758 54.53-7.127 10.757-1.401 21.52-2.751 32.273-4.183 9.02-1.201 18.03-2.487 27.303-3.846.607-.992 1.153-1.847 1.271-2.758.876-6.795 1.628-13.605 2.509-20.399.296-2.281.98-4.107 3.802-4.814 7.74-1.94 15.369-4.317 23.077-6.394 13.613-3.669 27.266-7.191 40.875-10.871 14.323-3.874 28.634-7.795 42.908-11.841 4.097-1.161 8.051-2.827 12.385-4.273 5.656-1.147 11.009-2.226 16.334-3.429 14.34-3.239 28.677-6.488 42.996-9.816 11.64-2.705 23.229-5.636 34.885-8.274 11.555-2.616 23.196-4.85 34.742-7.5 20.676-4.747 41.291-9.759 61.966-14.511 15.071-3.465 30.219-6.593 45.29-10.052 13.819-3.172 27.562-6.675 41.377-9.865 11.415-2.636 22.909-4.936 34.329-7.554 12.878-2.951 25.687-6.2 38.569-9.127 22.361-5.08 44.759-9.991 67.132-15.01a5044.939 5044.939 0 0 0 34.986-7.988c15.32-3.548 30.62-7.145 45.93-10.732 16.89-3.959 33.77-7.926 50.66-11.9 4.49-1.056 8.96-2.203 13.46-3.213 10.22-2.294 20.45-4.534 30.68-6.785 9.13-2.007 18.26-3.999 27.5-5.711.28 1.14.52 1.988.6 2.85.8 9.182 1.48 18.376 2.39 27.548 1.63 16.484 3.43 32.95 5.09 49.432.91 9.048 1.63 18.115 2.52 27.166 1.39 14.129 2.85 28.252 4.28 42.377l2.76 27.135c.83 8.305 1.67 16.609 2.48 24.916 1.12 11.405 2.19 22.813 3.32 34.217 1.12 11.403 2.3 22.802 3.44 34.203.9 9.047 1.84 18.09 2.68 27.142 1.15 12.402 2.22 24.811 2.98 37.227-18.93 1.014-37.52 2-56.12 3.078-.94.055-1.83.903-2.76 1.73.62 7.912 1.16 15.484 1.89 23.038 1.04 10.653 2.25 21.289 3.32 31.939.86 8.545 1.63 17.1 2.45 25.649.28 2.869 1.75 4.065 4.73 3.858 5.59-.39 11.2-.564 16.8-.77 14.07-.52 28.14-1.007 42.21-1.509 13.94-.498 27.89-1.016 41.83-1.493 15.32-.524 30.64-.991 45.96-1.52 14.7-.508 29.39-1.062 44.35-1.587 1.32-.467 2.38-.944 3.79-1.422 11.99.799 23.64 1.597 35.28 2.396l41.61 2.857ZM339.058 253.249c-2.985-.215-5.969-.584-8.956-.619-25.1-.295-50.2-.569-75.301-.763-15.242-.118-30.486-.092-45.729-.116-9.821-.015-9.746.021-12.763 9.285-.981 3.01-.252 4.077 2.921 4.145 20.466.433 40.931.962 61.396 1.481 18.965.482 37.929 1.023 56.896 1.449 2.544.057 3.675.909 3.497 3.53-.652 9.579-1.242 19.163-1.836 28.747-.655 10.58-1.245 21.163-1.959 31.739-.196 2.901 1.137 3.62 3.763 3.634 4.737.025 9.473.333 14.883.611 1.246.069 2.497.098 3.739.215 13.023 1.225 26.046 2.441 39.064 3.709 9.175.894 18.341 1.881 27.515 2.793 5.828.578 11.655 1.193 17.495 1.608 5.133.365 5.318.086 5.344-4.952.025-4.716-.051-9.436.097-14.148.383-12.21.821-24.419 1.336-36.625.129-3.066-.925-4.776-3.991-5.763-7.958-2.563-15.807-5.462-23.712-8.191-21.007-7.251-42.022-14.482-63.699-21.769Z"/><path fill="#BFA23E" d="M1182.87.043c3.73 3.432 7.68 7.037 11.37 10.893 6.99 7.297 13.79 14.778 20.74 22.11 15.2 16.026 30.47 31.993 45.68 48.01 13.4 14.112 26.77 28.256 40.15 42.392 17.58 18.583 35.16 37.171 52.74 55.758 4.12 4.352 8.35 8.607 12.27 13.128 1.18 1.366 2.11 3.476 2.12 5.253.14 18.115.14 36.232.01 54.347-.15 21.599-.48 43.195-.72 64.793-.26 23.097-.49 46.194-.76 69.29-.04 3.594-.26 7.187-.79 10.959-10.63-4.096-20.87-8.345-31.09-12.652-21.81-9.193-43.6-18.43-65.41-27.623-17.81-7.504-35.62-14.971-53.43-22.455-1.1-12.406-2.17-24.815-3.32-37.217-.84-9.052-1.78-18.095-2.68-27.142-1.14-11.401-2.32-22.8-3.44-34.203-1.13-11.404-2.2-22.812-3.32-34.217-.81-8.307-1.65-16.611-2.48-24.916l-2.76-27.135c-1.43-14.125-2.89-28.248-4.28-42.377-.89-9.05-1.61-18.118-2.52-27.166-1.66-16.481-3.46-32.948-5.09-49.432-.91-9.172-1.59-18.366-2.39-27.549-.08-.861-.32-1.709-.6-2.849ZM378.723 41.732c1.811.551 3.785.806 5.409 1.698 18.031 9.906 36.021 19.886 53.996 29.894 25.385 14.132 50.718 28.355 76.13 42.438 15.594 8.642 31.293 17.095 47.203 25.697-3.761 1.497-7.715 3.162-11.812 4.323-14.274 4.046-28.585 7.968-42.908 11.841-13.609 3.681-27.262 7.203-40.875 10.871-7.708 2.078-15.337 4.455-23.077 6.395-2.821.707-3.506 2.532-3.802 4.813-.881 6.794-1.632 13.605-2.509 20.399-.118.911-.664 1.767-1.471 2.6-9.915-3.847-19.374-7.637-28.826-11.445-11.415-4.598-22.823-9.211-34.223-14.163.287-8.688.45-17.037.863-25.373.912-18.397 1.95-36.788 2.934-55.18.28-5.223.55-10.446.834-15.667.708-13.047 1.422-26.094 2.134-39.14Z"/><path fill="#AC9337" d="M371.948 177.438c11.41 4.607 22.818 9.22 34.232 13.819 9.453 3.808 18.912 7.598 28.568 11.554-8.814 1.408-17.824 2.694-26.844 3.895-10.753 1.432-21.516 2.782-32.273 4.183-18.177 2.369-36.353 4.749-54.53 7.127-14.342 1.877-28.683 3.772-43.027 5.632-18.425 2.39-36.854 4.739-55.278 7.132a16554.685 16554.685 0 0 0-41.544 5.466c-14.465 1.916-28.927 3.852-43.712 5.818-14.397-7.706-28.479-15.439-42.544-23.203a8944.025 8944.025 0 0 1-31.372-17.414 22.899 22.899 0 0 1-3.949-2.771c12.581-1.173 24.994-2.244 37.422-3.098 10.072-.691 20.166-1.054 30.243-1.685 14.546-.911 29.086-1.93 43.628-2.909 7.832-.527 15.664-1.059 23.495-1.599 13.918-.958 27.833-1.953 41.753-2.877 9.077-.601 18.165-1.031 27.239-1.668 12.548-.88 25.082-1.949 37.631-2.811 9.324-.64 18.665-1.012 27.991-1.623 14.294-.935 28.581-1.973 42.871-2.968Z"/><path fill="#BFA23E" d="M1359.8 416.66c-14.69.534-29.38 1.089-44.08 1.596-15.32.529-30.64.997-45.96 1.521-13.94.477-27.89.994-41.83 1.492-14.07.502-28.14.989-42.21 1.509-5.6.207-11.21.38-16.8.77-2.98.208-4.45-.989-4.73-3.857-.82-8.55-1.59-17.104-2.45-25.65-1.07-10.649-2.28-21.286-3.32-31.939a400.938 400.938 0 0 1-1.58-23.031c2.01.014 3.79.162 5.4.759a1713.42 1713.42 0 0 1 24.07 9.15c13.72 5.317 27.39 10.746 41.12 16.013 22.58 8.656 45.18 17.233 67.78 25.821 20.41 7.757 40.85 15.462 61.24 23.273 1.26.483 2.24 1.698 3.35 2.573Z"/><path fill="#AC9337" d="M339.723 253.296c21.012 7.239 42.027 14.471 63.035 21.722 7.904 2.729 15.753 5.628 23.711 8.191 3.066.987 4.12 2.697 3.991 5.763a3388.52 3388.52 0 0 0-1.336 36.625c-.148 4.712-.072 9.431-.097 14.148-.026 5.038-.211 5.316-5.344 4.952-5.84-.415-11.667-1.03-17.495-1.609-9.173-.911-18.34-1.899-27.515-2.792-13.018-1.268-26.041-2.484-39.063-3.71-1.243-.117-2.493-.145-3.992-.539-.052-1.299.282-2.268.326-3.25a7238.54 7238.54 0 0 0 1.544-36.976c.304-7.847.422-15.704.819-23.546.321-6.334.933-12.653 1.416-18.979ZM1360.07 416.669c-1.38-.884-2.36-2.099-3.62-2.582-20.39-7.811-40.83-15.516-61.24-23.273-22.6-8.588-45.2-17.165-67.78-25.822-13.73-5.266-27.4-10.696-41.12-16.012-8-3.102-16.02-6.167-24.07-9.15-1.61-.597-3.39-.745-5.39-1.107.61-.486 1.5-1.334 2.44-1.388 18.6-1.079 37.19-2.065 56.12-3.079 18.15 7.474 35.96 14.941 53.77 22.445 21.81 9.194 43.6 18.43 65.41 27.623 10.22 4.307 20.46 8.556 30.98 12.888-.51 5.832-1.3 11.609-2.07 17.711-1.05.802-2.11 1.279-3.43 1.746Z"/><path fill="#9C8533" d="M339.391 253.272c-.151 6.35-.763 12.669-1.084 19.003-.397 7.842-.515 15.699-.819 23.546a7238.54 7238.54 0 0 1-1.544 36.976c-.044.982-.378 1.951-.663 3.206-4.821.091-9.557-.217-14.294-.242-2.626-.014-3.959-.733-3.763-3.634.714-10.576 1.304-21.16 1.959-31.739.594-9.584 1.184-19.168 1.836-28.748.178-2.621-.953-3.472-3.497-3.529-18.967-.426-37.931-.967-56.896-1.449-20.465-.519-40.93-1.048-61.396-1.482-3.173-.067-3.902-1.134-2.921-4.144 3.017-9.264 2.942-9.3 12.763-9.285 15.243.024 30.487-.003 45.729.116 25.101.194 50.201.468 75.301.762 2.987.035 5.971.405 9.289.643Z"/><path fill="#D4B244" d="M371.958 177.093c-14.3 1.34-28.587 2.377-42.881 3.313-9.326.61-18.667.982-27.991 1.623-12.549.861-25.083 1.931-37.631 2.811-9.074.637-18.162 1.066-27.239 1.668-13.92.923-27.835 1.919-41.753 2.877-7.831.54-15.663 1.072-23.495 1.599-14.542.979-29.082 1.998-43.628 2.909-10.077.631-20.171.993-30.243 1.685-12.428.854-24.84 1.925-37.592 2.905-.7-1.167-1.52-2.396-1.371-3.496 1.562-11.601 3.198-23.193 4.97-34.764 2.828-18.467 5.812-36.91 8.653-55.375 1.191-7.745 2.315-15.504 3.203-23.288.343-3.005 2.434-3.263 4.455-3.547 6.661-.936 13.351-1.673 20.028-2.505 13.226-1.649 26.445-3.355 39.677-4.953 13.727-1.658 27.471-3.18 41.199-4.829 12.741-1.53 25.47-3.163 38.206-4.731 13.599-1.675 27.201-3.322 40.801-4.992 11.498-1.412 22.992-2.861 34.493-4.255 13.231-1.603 26.471-3.13 39.701-4.75 12.737-1.561 25.464-3.215 38.2-4.788 2.098-.26 4.22-.317 6.667-.473-.376 13.042-1.09 26.089-1.798 39.136-.284 5.222-.554 10.444-.834 15.666-.985 18.394-2.022 36.784-2.934 55.181-.413 8.336-.576 16.685-.863 25.373Zm-28.492-59.431c.262-3.227.579-6.451.772-9.682.343-5.721.272-11.49.989-17.162 1.097-8.687 1.517-9.457-8.699-8.116-7.907 1.039-15.792 2.247-23.704 3.248-18.787 2.379-37.588 4.642-56.375 7.022-16.685 2.113-33.352 4.365-50.037 6.477-18.784 2.379-37.585 4.622-56.367 7.015-14.458 1.842-28.883 3.959-43.359 5.634-3.006.348-4.14 1.452-4.554 4.17-2.213 14.534-4.505 29.055-6.734 43.586-.555 3.615.527 4.921 4.197 4.834 3.607-.085 7.205-.595 10.811-.65 8.991-.139 17.985-.124 27.601-.122 12.175-.96 24.346-1.982 36.527-2.866 15.428-1.119 30.87-2.044 46.296-3.2 21.516-1.612 43.019-3.407 64.535-5.037a6562.295 6562.295 0 0 1 53.002-3.778c2.368-.16 3.382-1.209 3.508-3.433.515-9.092 1.038-18.183 1.591-27.94Z"/><path fill="#BFA23E" d="M137.385 163.867c-8.993.047-17.988.033-26.979.171-3.606.055-7.204.566-10.81.65-3.671.087-4.753-1.219-4.198-4.834 2.23-14.531 4.52-29.052 6.734-43.586.415-2.718 1.548-3.822 4.554-4.17 14.476-1.675 28.901-3.792 43.359-5.634 18.782-2.393 37.583-4.636 56.368-7.014 16.684-2.113 33.352-4.365 50.036-6.478 18.787-2.38 37.588-4.643 56.375-7.021 7.912-1.002 15.797-2.21 23.704-3.248 10.216-1.342 9.796-.572 8.699 8.115-.717 5.672-.646 11.441-.989 17.162-.193 3.232-.51 6.455-1.105 10.003-15.106 1.533-29.874 2.802-44.652 3.943-13.911 1.074-27.834 1.991-41.748 3.017-20.128 1.484-40.25 3.041-60.379 4.499a8805.291 8805.291 0 0 1-54.813 3.787c-2.287.151-3.445.94-3.493 3.334-.183 9.102-.436 18.203-.663 27.304Z"/><path fill="#9C8434" d="M137.696 163.892c-.084-9.126.169-18.227.351-27.329.048-2.395 1.207-3.184 3.494-3.335a8729.09 8729.09 0 0 0 54.813-3.787c20.129-1.457 40.251-3.015 60.379-4.499 13.914-1.026 27.837-1.942 41.748-3.016 14.778-1.141 29.546-2.41 44.635-3.611-.203 9.104-.726 18.195-1.241 27.287-.126 2.223-1.14 3.273-3.508 3.433a6562.295 6562.295 0 0 0-53.002 3.778c-21.516 1.63-43.019 3.424-64.535 5.037-15.426 1.156-30.868 2.081-46.296 3.2-12.181.884-24.352 1.906-36.838 2.842Z"/></g></svg>